# xmcd CD database file
#
# Track frame offsets:
#	150
#	18432
#	34335
#	62365
#	81030
#	93047
#	110310
#	127217
#	146395
#	170295
#	201252
#
# Disc length: 3026 seconds
#
# Revision: 0
# Processed by: cddbd v1.5.1PL0 Copyright (c) Steve Scherf et al.
# Submitted via: CDex 1.50
#
DISCID=890bd00b
DTITLE=Toth Bagi Band - Crazy Clock
DYEAR=1997
DGENRE=Blues
TTITLE0=Your way
TTITLE1=I ain't superstitious
TTITLE2=Angel left me today
TTITLE3=Baby blue
TTITLE4=Lucky Jack
TTITLE5=October
TTITLE6=Six shooter
TTITLE7=Never mind
TTITLE8=Losein' the blues
TTITLE9=Crazy clock
TTITLE10=Red house
EXTD=YEAR: 1997
EXTT0=
EXTT1=
EXTT2=
EXTT3=
EXTT4=
EXTT5=
EXTT6=
EXTT7=
EXTT8=
EXTT9=
EXTT10=
PLAYORDER=
